<?xml version="1.0" standalone="no"?>
<!DOCTYPE svg PUBLIC "-//W3C//DTD SVG 20010904//EN"
 "http://www.w3.org/TR/2001/REC-SVG-20010904/DTD/svg10.dtd">
<svg version="1.0" xmlns="http://www.w3.org/2000/svg"
 width="512.000000pt" height="512.000000pt" viewBox="0 0 512.000000 512.000000"
 preserveAspectRatio="xMidYMid meet">

<g transform="translate(0.000000,512.000000) scale(0.100000,-0.100000)"
fill="#000000" stroke="none">
<path d="M2634 5104 c-16 -8 -141 -126 -276 -262 -206 -206 -248 -254 -257
-287 -24 -92 -94 -15 1172 -1282 1269 -1268 1190 -1197 1282 -1172 33 9 83 54
297 267 218 219 257 262 263 294 16 85 74 22 -1168 1267 -682 682 -1175 1169
-1194 1177 -41 18 -80 17 -119 -2z"/>
<path d="M3545 5106 c-16 -8 -64 -48 -105 -90 l-75 -76 788 -787 787 -788 80
80 c88 87 107 126 96 192 -7 34 -81 112 -714 747 -409 410 -721 714 -739 722
-40 17 -79 17 -118 0z"/>
<path d="M4455 5106 c-16 -8 -64 -48 -105 -90 l-75 -76 333 -332 332 -333 80
80 c88 87 107 127 96 192 -7 33 -41 71 -259 292 -139 139 -266 259 -284 267
-40 17 -79 17 -118 0z"/>
<path d="M2225 2890 l-500 -500 333 -332 332 -333 502 502 503 503 -330 330
c-181 181 -332 330 -335 330 -3 0 -230 -225 -505 -500z"/>
<path d="M555 3015 c-30 -11 -100 -75 -292 -267 -273 -275 -279 -284 -255
-366 9 -30 245 -270 1179 -1204 1030 -1029 1172 -1167 1205 -1173 79 -15 87
-9 360 264 216 216 258 262 267 296 24 92 93 16 -1162 1273 -634 634 -1163
1159 -1177 1166 -42 23 -83 26 -125 11z"/>
<path d="M93 1667 c-89 -91 -105 -128 -85 -195 9 -29 159 -184 724 -749 639
-638 717 -712 751 -719 66 -11 105 8 192 96 l80 80 -785 785 c-432 432 -788
785 -791 785 -3 0 -42 -37 -86 -83z"/>
<path d="M93 757 c-61 -62 -83 -92 -88 -119 -15 -79 -9 -87 259 -356 138 -140
263 -260 278 -268 68 -35 128 -12 228 90 l75 76 -330 330 c-181 182 -332 330
-336 330 -3 0 -42 -37 -86 -83z"/>
</g>
</svg>
