<?xml version="1.0" standalone="no"?>
<!DOCTYPE svg PUBLIC "-//W3C//DTD SVG 20010904//EN"
 "http://www.w3.org/TR/2001/REC-SVG-20010904/DTD/svg10.dtd">
<svg version="1.0" xmlns="http://www.w3.org/2000/svg"
 width="512.000000pt" height="512.000000pt" viewBox="0 0 512.000000 512.000000"
 preserveAspectRatio="xMidYMid meet">

<g transform="translate(0.000000,512.000000) scale(0.100000,-0.100000)"
fill="#000000" stroke="none">
<path d="M2463 4974 c-32 -12 -309 -259 -1226 -1094 -1313 -1196 -1232 -1115
-1232 -1245 1 -108 56 -194 155 -239 40 -18 69 -21 257 -24 l213 -4 0 -1061
c0 -1185 -5 -1105 69 -1154 l34 -23 677 0 677 0 34 23 c72 48 69 17 69 745 l0
652 370 0 370 0 0 -652 c0 -728 -3 -697 69 -745 l34 -23 677 0 677 0 34 23
c74 49 69 -31 69 1154 l0 1061 213 4 c188 3 217 6 257 24 99 45 154 131 155
239 0 130 81 49 -1231 1244 -1281 1167 -1215 1112 -1328 1110 -28 0 -70 -7
-93 -15z"/>
<path d="M3460 4675 c8 -8 267 -243 575 -523 l560 -510 3 466 c3 519 3 513
-67 559 l-34 23 -526 0 c-460 0 -523 -2 -511 -15z"/>
</g>
</svg>
