<?xml version="1.0" standalone="no"?>
<!DOCTYPE svg PUBLIC "-//W3C//DTD SVG 20010904//EN"
 "http://www.w3.org/TR/2001/REC-SVG-20010904/DTD/svg10.dtd">
<svg version="1.0" xmlns="http://www.w3.org/2000/svg"
 width="512.000000pt" height="512.000000pt" viewBox="0 0 512.000000 512.000000"
 preserveAspectRatio="xMidYMid meet">

<g transform="translate(0.000000,512.000000) scale(0.100000,-0.100000)"
fill="#000000" stroke="none">
<path d="M2526 5104 c-177 -43 -324 -189 -372 -369 -19 -68 -17 -200 2 -266
72 -244 313 -403 559 -368 423 60 595 568 294 868 -126 127 -308 177 -483 135z"/>
<path d="M1565 4696 c-291 -73 -544 -140 -562 -149 -71 -38 -121 -137 -107
-215 10 -59 50 -119 97 -145 23 -14 229 -102 458 -197 l416 -173 -42 -91
c-137 -294 -202 -697 -164 -1011 56 -459 325 -702 799 -722 222 -9 450 26 635
98 253 98 415 269 476 504 64 246 -10 641 -186 995 l-52 105 29 72 30 72 366
203 c202 111 384 218 405 237 52 47 74 121 56 193 -16 69 -75 133 -138 151
-87 26 -891 210 -895 206 -3 -2 4 -36 15 -74 17 -57 20 -90 16 -177 l-5 -107
97 -32 96 -32 -35 -15 c-161 -65 -250 -105 -250 -112 0 -4 -24 -32 -53 -63
-199 -207 -505 -241 -738 -82 -36 25 -84 64 -105 88 -37 40 -47 44 -222 96
-101 30 -179 57 -175 61 4 4 65 26 134 49 l125 43 -4 106 c-4 100 6 168 33
235 5 11 3 17 -6 16 -8 -1 -252 -61 -544 -133z"/>
<path d="M1770 2227 c1 -29 61 -151 110 -221 60 -88 136 -160 230 -222 l65
-43 314 -806 c337 -863 337 -862 423 -906 164 -84 368 38 368 219 0 20 -61
357 -135 750 -74 393 -135 718 -135 723 0 5 14 9 30 9 17 0 30 -3 30 -6 0 -7
169 -906 173 -916 1 -5 58 42 127 103 340 303 349 313 375 418 26 100 15 135
-161 526 -87 193 -159 352 -160 354 -2 2 -31 -18 -66 -44 -81 -61 -238 -137
-353 -169 -173 -49 -264 -60 -485 -60 -190 0 -212 2 -304 27 -170 46 -299 119
-398 225 -27 28 -48 46 -48 39z"/>
<path d="M2360 760 c-140 -165 -142 -175 -96 -402 46 -222 73 -271 176 -317
89 -40 216 -16 279 52 l24 27 -144 370 c-79 203 -146 370 -149 370 -3 -1 -43
-45 -90 -100z"/>
</g>
</svg>
