<?xml version="1.0" standalone="no"?>
<!DOCTYPE svg PUBLIC "-//W3C//DTD SVG 20010904//EN"
 "http://www.w3.org/TR/2001/REC-SVG-20010904/DTD/svg10.dtd">
<svg version="1.0" xmlns="http://www.w3.org/2000/svg"
 width="512.000000pt" height="512.000000pt" viewBox="0 0 512.000000 512.000000"
 preserveAspectRatio="xMidYMid meet">

<g transform="translate(0.000000,512.000000) scale(0.100000,-0.100000)"
fill="#000000" stroke="none">
<path d="M3365 4947 c-22 -8 -51 -19 -65 -27 -32 -16 -220 -200 -220 -214 0
-14 1612 -1626 1626 -1626 19 0 201 194 225 240 33 63 33 176 0 240 -16 31
-226 248 -669 693 -507 507 -658 653 -697 672 -62 30 -146 39 -200 22z"/>
<path d="M4245 4787 c-22 -8 -51 -19 -63 -26 -34 -18 -102 -81 -102 -95 0 -15
572 -586 586 -586 17 0 80 73 106 122 32 62 32 175 -1 238 -34 66 -264 295
-326 325 -62 30 -146 39 -200 22z"/>
<path d="M2643 4706 c-70 -23 -102 -49 -269 -218 -190 -191 -208 -221 -209
-328 0 -64 4 -83 28 -126 39 -70 1782 -1812 1847 -1845 64 -33 176 -33 240 0
62 32 370 339 407 405 38 69 40 177 4 246 -16 31 -292 315 -909 933 -702 702
-897 893 -937 912 -63 31 -146 39 -202 21z"/>
<path d="M2262 2857 c-232 -232 -422 -427 -422 -432 0 -13 572 -585 585 -585
13 0 855 842 855 855 0 13 -572 585 -585 585 -6 0 -200 -190 -433 -423z"/>
<path d="M890 2947 c-73 -20 -105 -46 -276 -219 -190 -191 -208 -221 -209
-328 0 -64 4 -83 28 -126 39 -70 1782 -1812 1847 -1845 64 -33 176 -33 240 0
62 32 370 339 407 405 38 69 40 177 4 246 -16 31 -292 315 -909 933 -705 705
-897 893 -937 912 -62 30 -136 38 -195 22z"/>
<path d="M308 1943 c-121 -124 -142 -163 -143 -263 0 -64 4 -83 28 -126 39
-70 1302 -1332 1367 -1365 64 -33 177 -33 240 0 46 24 240 206 240 225 0 14
-1612 1626 -1626 1626 -5 0 -53 -44 -106 -97z"/>
<path d="M407 1000 c-62 -68 -82 -115 -82 -200 0 -64 4 -83 29 -127 35 -64
264 -292 326 -324 63 -33 176 -33 238 -1 50 26 122 89 122 106 0 15 -572 586
-586 586 -7 0 -28 -18 -47 -40z"/>
</g>
</svg>
