<?xml version="1.0" standalone="no"?>
<!DOCTYPE svg PUBLIC "-//W3C//DTD SVG 20010904//EN"
 "http://www.w3.org/TR/2001/REC-SVG-20010904/DTD/svg10.dtd">
<svg version="1.0" xmlns="http://www.w3.org/2000/svg"
 width="512.000000pt" height="512.000000pt" viewBox="0 0 512.000000 512.000000"
 preserveAspectRatio="xMidYMid meet">

<g transform="translate(0.000000,512.000000) scale(0.100000,-0.100000)"
fill="#ffffff" stroke="none">
<path d="M2535 3400 c-11 -4 -289 -278 -617 -607 -552 -552 -598 -601 -598
-632 0 -28 12 -45 73 -108 80 -83 116 -106 150 -98 13 4 248 231 523 506 l499
499 500 -499 c275 -275 510 -502 522 -506 33 -9 70 15 151 98 60 63 72 80 72
108 0 31 -46 80 -602 636 -390 389 -612 604 -628 607 -14 3 -34 1 -45 -4z"/>
</g>
</svg>
