<?xml version="1.0" standalone="no"?>
<!DOCTYPE svg PUBLIC "-//W3C//DTD SVG 20010904//EN"
 "http://www.w3.org/TR/2001/REC-SVG-20010904/DTD/svg10.dtd">
<svg version="1.0" xmlns="http://www.w3.org/2000/svg"
 width="512.000000pt" height="512.000000pt" viewBox="0 0 512.000000 512.000000"
 preserveAspectRatio="xMidYMid meet">

<g transform="translate(0.000000,512.000000) scale(0.100000,-0.100000)"
fill="#ffffff" stroke="none">
<path d="M1475 3152 c-16 -11 -60 -51 -97 -90 -56 -58 -68 -76 -68 -103 0 -31
47 -81 604 -638 577 -577 607 -605 641 -605 34 0 64 28 641 605 557 558 604
607 604 638 0 28 -12 45 -72 108 -81 83 -117 106 -151 98 -13 -4 -248 -231
-523 -506 l-499 -499 -500 499 c-309 309 -510 502 -525 506 -16 3 -36 -2 -55
-13z"/>
</g>
</svg>
