<?xml version="1.0" standalone="no"?>
<!DOCTYPE svg PUBLIC "-//W3C//DTD SVG 20010904//EN"
 "http://www.w3.org/TR/2001/REC-SVG-20010904/DTD/svg10.dtd">
<svg version="1.0" xmlns="http://www.w3.org/2000/svg"
 width="512.000000pt" height="512.000000pt" viewBox="0 0 512.000000 512.000000"
 preserveAspectRatio="xMidYMid meet">

<g transform="translate(0.000000,512.000000) scale(0.100000,-0.100000)"
fill="#ffc107" stroke="none">
<path d="M2465 4808 c-84 -16 -172 -65 -239 -132 -58 -59 -75 -89 -324 -584
-145 -287 -266 -522 -268 -522 -30 0 -1123 -174 -1159 -185 -67 -19 -161 -81
-209 -136 -135 -157 -154 -388 -46 -564 18 -30 197 -214 441 -455 l411 -405
-91 -560 c-50 -308 -91 -585 -91 -615 0 -220 159 -409 382 -456 80 -17 151
-13 233 13 28 9 276 133 552 275 l503 260 502 -260 c277 -142 528 -267 558
-278 80 -27 205 -25 293 5 185 63 317 247 317 441 0 37 -40 312 -91 620 l-90
554 420 415 c414 409 422 417 458 496 34 72 38 90 41 180 3 83 0 111 -18 164
-50 150 -164 263 -310 309 -28 9 -1123 182 -1152 182 -4 0 -125 234 -269 521
-249 497 -263 523 -322 582 -120 120 -268 167 -432 135z m201 -334 c30 -24 84
-123 313 -575 152 -300 283 -554 290 -563 8 -10 27 -24 43 -32 16 -8 291 -55
611 -105 320 -49 597 -92 616 -95 41 -8 99 -58 117 -101 18 -41 18 -95 0 -136
-8 -19 -193 -210 -447 -462 -239 -236 -442 -441 -451 -455 -10 -14 -18 -43
-18 -65 0 -22 43 -308 96 -635 70 -428 95 -606 90 -633 -16 -84 -121 -150
-203 -128 -21 6 -279 135 -573 288 -511 265 -537 278 -590 278 -52 -1 -81 -14
-602 -284 -505 -261 -551 -283 -597 -283 -52 1 -95 18 -122 48 -27 31 -49 81
-49 113 0 16 43 289 95 606 52 318 95 598 95 624 0 27 -7 57 -18 72 -9 15
-211 218 -448 453 -243 239 -439 441 -448 460 -20 41 -21 96 -2 139 18 43 76
93 117 101 19 3 299 46 622 96 324 50 596 94 605 99 10 5 27 20 39 33 12 12
146 269 297 569 152 300 284 553 294 561 65 58 165 63 228 12z"/>
</g>
</svg>
