<?xml version="1.0" standalone="no"?>
<!DOCTYPE svg PUBLIC "-//W3C//DTD SVG 20010904//EN"
 "http://www.w3.org/TR/2001/REC-SVG-20010904/DTD/svg10.dtd">
<svg version="1.0" xmlns="http://www.w3.org/2000/svg"
 width="512.000000pt" height="512.000000pt" viewBox="0 0 512.000000 512.000000"
 preserveAspectRatio="xMidYMid meet">

<g transform="translate(0.000000,512.000000) scale(0.100000,-0.100000)"
fill="#ffc107" stroke="none">
<path d="M4350 4866 c-19 -8 -158 -58 -307 -112 -296 -106 -313 -116 -353
-200 -54 -117 -33 -200 74 -284 l66 -52 -62 -71 c-561 -633 -1409 -1214 -2149
-1472 -302 -105 -569 -159 -855 -173 -121 -6 -157 -12 -189 -28 -142 -74 -136
-299 10 -365 47 -22 149 -24 325 -8 868 78 1846 560 2710 1335 143 127 350
338 459 467 41 48 77 87 81 87 3 0 22 -16 41 -36 65 -68 138 -81 230 -40 55
24 96 61 119 106 16 29 62 619 53 670 -22 128 -148 216 -253 176z"/>
<path d="M4207 3270 c-43 -13 -92 -55 -111 -93 -15 -32 -16 -157 -16 -1417 l0
-1382 22 -40 c13 -22 41 -51 64 -64 l41 -24 339 0 c384 0 382 0 439 79 l30 43
3 1365 c2 976 -1 1377 -9 1406 -14 52 -72 111 -124 126 -47 13 -635 14 -678 1z"/>
<path d="M2835 2246 c-23 -14 -51 -43 -65 -68 l-25 -43 -3 -850 c-2 -603 0
-861 8 -888 13 -43 70 -111 111 -133 23 -11 91 -14 359 -14 310 0 333 1 370
20 47 24 75 62 90 121 7 31 10 301 8 894 -3 965 3 900 -87 956 l-45 29 -340 0
-341 0 -40 -24z"/>
<path d="M1525 1661 c-51 -23 -91 -70 -105 -121 -7 -26 -10 -233 -8 -614 l3
-574 30 -43 c56 -79 58 -79 412 -79 202 0 313 4 313 10 0 6 12 10 26 10 43 0
104 41 132 90 l27 45 0 570 c0 314 -3 582 -7 597 -12 40 -57 89 -103 109 -36
17 -71 19 -360 19 -289 0 -324 -2 -360 -19z"/>
<path d="M202 1023 c-44 -21 -79 -65 -92 -114 -7 -26 -10 -134 -8 -297 3 -287
5 -296 75 -349 l36 -28 326 -3 c179 -2 336 0 349 3 29 7 99 70 118 106 11 22
14 83 14 300 0 269 0 273 -24 313 -13 23 -42 51 -64 64 -39 22 -46 22 -368 22
-282 0 -334 -3 -362 -17z"/>
</g>
</svg>
