<?xml version="1.0" standalone="no"?>
<!DOCTYPE svg PUBLIC "-//W3C//DTD SVG 20010904//EN"
 "http://www.w3.org/TR/2001/REC-SVG-20010904/DTD/svg10.dtd">
<svg version="1.0" xmlns="http://www.w3.org/2000/svg"
 width="512.000000pt" height="512.000000pt" viewBox="0 0 512.000000 512.000000"
 preserveAspectRatio="xMidYMid meet">

<g transform="translate(0.000000,512.000000) scale(0.100000,-0.100000)"
fill="#ffc107" stroke="none">
<path d="M0 4370 l0 -450 450 0 450 0 0 450 0 450 -450 0 -450 0 0 -450z"/>
<path d="M1207 4813 c-4 -3 -7 -206 -7 -450 l0 -443 1960 0 1960 0 0 450 0
450 -1953 0 c-1075 0 -1957 -3 -1960 -7z"/>
<path d="M0 3160 l0 -450 450 0 450 0 0 450 0 450 -450 0 -450 0 0 -450z"/>
<path d="M1202 3163 l3 -448 1958 -3 1957 -2 0 450 0 450 -1960 0 -1960 0 2
-447z"/>
<path d="M0 1960 l0 -450 450 0 450 0 0 450 0 450 -450 0 -450 0 0 -450z"/>
<path d="M1207 2403 c-4 -3 -7 -206 -7 -450 l0 -443 1960 0 1960 0 0 450 0
450 -1953 0 c-1075 0 -1957 -3 -1960 -7z"/>
<path d="M0 750 l0 -450 450 0 450 0 0 450 0 450 -450 0 -450 0 0 -450z"/>
<path d="M1202 753 l3 -448 1958 -3 1957 -2 0 450 0 450 -1960 0 -1960 0 2
-447z"/>
</g>
</svg>
