<?xml version="1.0" standalone="no"?>
<!DOCTYPE svg PUBLIC "-//W3C//DTD SVG 20010904//EN"
 "http://www.w3.org/TR/2001/REC-SVG-20010904/DTD/svg10.dtd">
<svg version="1.0" xmlns="http://www.w3.org/2000/svg"
 width="512.000000pt" height="512.000000pt" viewBox="0 0 512.000000 512.000000"
 preserveAspectRatio="xMidYMid meet">

<g transform="translate(0.000000,512.000000) scale(0.100000,-0.100000)"
fill="#ff0000" stroke="none">
<path d="M1965 5100 c-152 -49 -255 -192 -255 -352 l0 -58 851 0 852 0 -5 78
c-3 55 -12 94 -31 135 -35 77 -118 158 -194 189 l-58 23 -550 2 c-520 2 -553
1 -610 -17z"/>
<path d="M653 4460 c-201 -53 -351 -199 -419 -410 -14 -46 -18 -102 -21 -330
-4 -271 -4 -276 19 -320 13 -25 38 -55 57 -67 l34 -23 2237 0 2237 0 33 23
c19 12 43 38 54 57 20 33 21 51 21 315 0 306 -4 334 -65 455 -66 130 -198 245
-338 292 l-67 23 -1855 2 c-1788 2 -1858 1 -1927 -17z"/>
<path d="M640 1807 c0 -1246 1 -1286 20 -1361 28 -110 74 -190 155 -271 81
-81 161 -127 271 -155 75 -19 116 -20 1474 -20 1358 0 1399 1 1474 20 110 28
190 74 271 155 81 81 127 161 155 271 19 75 20 115 20 1361 l0 1283 -1920 0
-1920 0 0 -1283z m1068 851 c69 -17 136 -88 152 -159 8 -39 10 -276 8 -879
l-3 -825 -28 -47 c-49 -84 -149 -124 -244 -97 -59 16 -124 78 -141 135 -9 31
-12 244 -12 876 l0 834 26 53 c28 56 79 98 136 111 47 11 54 11 106 -2z m950
-17 c47 -24 77 -56 97 -103 13 -33 15 -142 15 -885 0 -804 -1 -850 -19 -888
-76 -164 -298 -166 -382 -3 -18 36 -19 70 -19 888 0 745 2 855 15 888 48 113
181 160 293 103z m922 -9 c31 -19 52 -43 72 -81 l28 -53 0 -835 c0 -632 -3
-846 -12 -877 -17 -57 -82 -119 -141 -135 -95 -27 -195 13 -244 97 l-28 47 -3
834 c-3 950 -6 909 73 979 77 68 168 76 255 24z"/>
</g>
</svg>
