<?xml version="1.0" standalone="no"?>
<!DOCTYPE svg PUBLIC "-//W3C//DTD SVG 20010904//EN"
 "http://www.w3.org/TR/2001/REC-SVG-20010904/DTD/svg10.dtd">
<svg version="1.0" xmlns="http://www.w3.org/2000/svg"
 width="512.000000pt" height="512.000000pt" viewBox="0 0 512.000000 512.000000"
 preserveAspectRatio="xMidYMid meet">

<g transform="translate(0.000000,512.000000) scale(0.100000,-0.100000)"
fill="#0d6efd" stroke="none">
<path d="M2502 4341 c-226 -82 -250 -133 -172 -352 22 -62 37 -116 33 -119 -5
-4 -54 -23 -110 -43 l-103 -36 -14 28 c-21 39 -91 100 -144 123 -78 35 -141
34 -294 -5 -219 -56 -367 -128 -466 -226 -61 -60 -95 -126 -114 -220 l-13 -63
-106 -38 -107 -38 -42 125 c-49 142 -80 184 -152 204 -40 10 -53 8 -183 -35
-77 -26 -154 -56 -172 -67 -36 -23 -73 -91 -73 -135 0 -37 324 -970 348 -1004
22 -31 97 -70 133 -70 37 0 286 87 322 112 32 23 66 89 67 128 0 14 -18 80
-40 145 -22 65 -40 124 -40 130 0 5 50 27 111 48 l112 38 15 -23 c9 -13 35
-43 58 -68 l41 -45 -5 -157 c-10 -321 54 -639 189 -941 133 -298 487 -795 769
-1078 310 -311 453 -359 774 -257 367 116 1083 604 1507 1027 113 114 130 135
172 221 130 266 152 573 62 833 -70 200 -227 364 -425 443 -134 55 -204 67
-375 68 -177 1 -243 -13 -370 -76 -260 -131 -485 -430 -629 -838 l-43 -121
-41 54 c-139 180 -412 393 -707 552 -49 26 -93 53 -97 59 -18 27 -59 235 -65
324 -5 87 -2 113 22 215 l29 116 175 60 c97 34 181 61 186 61 6 0 29 -56 53
-124 74 -212 127 -235 354 -156 132 46 179 74 203 120 31 61 22 99 -146 582
-88 254 -169 477 -180 495 -23 38 -92 73 -140 72 -19 0 -94 -22 -167 -48z
m193 -101 c6 -9 300 -851 315 -902 11 -36 4 -41 -128 -88 -93 -33 -142 -42
-142 -25 0 4 -200 586 -264 766 -30 85 -51 161 -47 167 8 13 215 91 243 91 9
1 19 -3 23 -9z m-745 -432 c35 -18 51 -35 70 -73 49 -98 39 -319 -27 -569 -23
-87 -25 -112 -20 -200 10 -168 67 -409 105 -448 10 -9 61 -39 114 -67 347
-180 611 -403 773 -650 44 -67 54 -76 84 -79 48 -5 67 18 86 106 26 115 101
324 159 442 195 396 451 593 771 592 344 -1 609 -188 690 -487 26 -98 31 -265
10 -385 -34 -206 -96 -333 -222 -457 -330 -325 -887 -730 -1248 -909 -186 -92
-297 -127 -410 -128 -79 -1 -97 2 -146 27 -205 100 -503 428 -825 909 -194
289 -288 509 -355 833 -21 97 -23 140 -24 366 l0 257 -40 43 c-107 117 -181
233 -216 336 -30 92 -31 223 -2 278 57 106 213 196 448 256 134 34 168 35 225
7z m499 -168 c17 -49 31 -93 31 -97 0 -7 -264 -104 -282 -103 -5 0 -8 49 -8
109 l0 109 98 35 c53 20 104 36 113 36 12 1 25 -24 48 -89z m-1771 -102 c5 -7
46 -120 91 -252 45 -131 116 -335 158 -454 55 -154 73 -219 67 -230 -6 -8 -63
-33 -127 -55 -101 -35 -120 -38 -131 -26 -18 19 -329 914 -324 931 4 11 213
95 244 97 6 1 16 -5 22 -11z m515 -436 c1 -9 -32 -26 -90 -47 -81 -29 -92 -31
-98 -16 -4 9 -20 53 -36 99 l-28 83 27 11 c15 5 56 20 92 32 l65 23 33 -86
c18 -47 34 -92 35 -99z"/>
</g>
</svg>
